<?xml version="1.0" encoding="UTF-8" standalone="no"?>
<svg
   xmlns:dc="http://purl.org/dc/elements/1.1/"
   xmlns:cc="http://creativecommons.org/ns#"
   xmlns:rdf="http://www.w3.org/1999/02/22-rdf-syntax-ns#"
   xmlns:svg="http://www.w3.org/2000/svg"
   xmlns="http://www.w3.org/2000/svg"
   xmlns:sodipodi="http://sodipodi.sourceforge.net/DTD/sodipodi-0.dtd"
   xmlns:inkscape="http://www.inkscape.org/namespaces/inkscape"
   width="648"
   height="360"
   version="1.1"
   id="svg1717"
   sodipodi:docname="Extra pieces.svg"
   inkscape:version="1.0.2 (e86c870879, 2021-01-15, custom)"
   inkscape:export-filename="C:\Users\Alan\Documents\GitHub\ShogiGUI-piece-sets\PNG\CtomatoKanjiP.png"
   inkscape:export-xdpi="96"
   inkscape:export-ydpi="96">
  <metadata
     id="metadata1723">
    <rdf:RDF>
      <cc:Work
         rdf:about="">
        <dc:format>image/svg+xml</dc:format>
        <dc:type
           rdf:resource="http://purl.org/dc/dcmitype/StillImage" />
        <dc:title />
      </cc:Work>
    </rdf:RDF>
  </metadata>
  <defs
     id="defs1721">
    <filter
       inkscape:label="Greyscale"
       inkscape:menu="Bumps"
       inkscape:menu-tooltip="Bumps effect with a bevel, color flood and complex lighting"
       style="color-interpolation-filters:sRGB"
       id="filter1006">
      <feGaussianBlur
         stdDeviation="5"
         result="result8"
         id="feGaussianBlur972" />
      <feComposite
         result="result6"
         in="SourceGraphic"
         operator="in"
         in2="result8"
         id="feComposite974" />
      <feComposite
         operator="in"
         result="result11"
         in2="result6"
         id="feComposite976" />
      <feFlood
         result="result10"
         flood-opacity="1"
         flood-color="rgb(255,255,255)"
         id="feFlood978" />
      <feBlend
         mode="multiply"
         in="result10"
         in2="result11"
         result="result12"
         id="feBlend980" />
      <feComposite
         result="fbSourceGraphic"
         operator="in"
         in2="SourceGraphic"
         in="result12"
         id="feComposite982" />
      <feFlood
         result="result6"
         flood-color="rgb(75,101,154)"
         id="feFlood984" />
      <feComposite
         k3="0.3"
         k2="0.3"
         k1="0.5"
         operator="arithmetic"
         result="result2"
         in="fbSourceGraphic"
         in2="result6"
         id="feComposite986"
         k4="0" />
      <feColorMatrix
         result="fbSourceGraphicAlpha"
         in="result2"
         values="1 0 0 -1 0 1 0 1 -1 0 1 0 0 -1 0 -0.8 -1 0 3.9 -2.7 "
         type="matrix"
         id="feColorMatrix988" />
      <feGaussianBlur
         result="result0"
         in="fbSourceGraphicAlpha"
         stdDeviation="0.5"
         id="feGaussianBlur990" />
      <feDiffuseLighting
         lighting-color="#ffffff"
         diffuseConstant="0.69999999"
         surfaceScale="50"
         result="result13"
         in="result0"
         id="feDiffuseLighting994">
        <feDistantLight
           elevation="20"
           azimuth="225"
           id="feDistantLight992" />
      </feDiffuseLighting>
      <feSpecularLighting
         specularExponent="20"
         specularConstant="0.69999999"
         surfaceScale="10"
         lighting-color="#ffffff"
         result="result1"
         in="result0"
         id="feSpecularLighting998">
        <feDistantLight
           elevation="45"
           azimuth="225"
           id="feDistantLight996" />
      </feSpecularLighting>
      <feBlend
         mode="screen"
         result="result5"
         in2="SourceGraphic"
         in="result13"
         id="feBlend1000" />
      <feComposite
         in="result1"
         k3="1"
         k2="1"
         operator="arithmetic"
         in2="result5"
         result="result9"
         id="feComposite1002"
         k1="0"
         k4="0" />
      <feComposite
         in2="SourceGraphic"
         operator="in"
         id="feComposite1004"
         result="fbSourceGraphic" />
      <feColorMatrix
         result="fbSourceGraphicAlpha"
         in="fbSourceGraphic"
         values="0 0 0 -1 0 0 0 0 -1 0 0 0 0 -1 0 0 0 0 1 0"
         id="feColorMatrix1032" />
      <feColorMatrix
         id="feColorMatrix1034"
         values="0.21 0.72 0.072 -0.55 0 0.21 0.72 0.072 -0.55 0 0.21 0.72 0.072 -0.55 0 0 0 0 1 0 "
         in="fbSourceGraphic" />
    </filter>
    <filter
       inkscape:label="Greyscale"
       inkscape:menu="Bumps"
       inkscape:menu-tooltip="Bumps effect with a bevel, color flood and complex lighting"
       style="color-interpolation-filters:sRGB"
       id="filter894">
      <feGaussianBlur
         stdDeviation="5"
         result="result8"
         id="feGaussianBlur860" />
      <feComposite
         result="result6"
         in="SourceGraphic"
         operator="in"
         in2="result8"
         id="feComposite862" />
      <feComposite
         operator="in"
         result="result11"
         in2="result6"
         id="feComposite864" />
      <feFlood
         result="result10"
         flood-opacity="1"
         flood-color="rgb(255,255,255)"
         id="feFlood866" />
      <feBlend
         mode="multiply"
         in="result10"
         in2="result11"
         result="result12"
         id="feBlend868" />
      <feComposite
         result="fbSourceGraphic"
         operator="in"
         in2="SourceGraphic"
         in="result12"
         id="feComposite870" />
      <feFlood
         result="result6"
         flood-color="rgb(75,101,154)"
         id="feFlood872" />
      <feComposite
         k3="0.3"
         k2="0.3"
         k1="0.5"
         operator="arithmetic"
         result="result2"
         in="fbSourceGraphic"
         in2="result6"
         id="feComposite874"
         k4="0" />
      <feColorMatrix
         result="fbSourceGraphicAlpha"
         in="result2"
         values="1 0 0 -1 0 1 0 1 -1 0 1 0 0 -1 0 -0.8 -1 0 3.9 -2.7 "
         type="matrix"
         id="feColorMatrix876" />
      <feGaussianBlur
         result="result0"
         in="fbSourceGraphicAlpha"
         stdDeviation="0.5"
         id="feGaussianBlur878" />
      <feDiffuseLighting
         lighting-color="#ffffff"
         diffuseConstant="0.69999999"
         surfaceScale="50"
         result="result13"
         in="result0"
         id="feDiffuseLighting882">
        <feDistantLight
           elevation="20"
           azimuth="225"
           id="feDistantLight880" />
      </feDiffuseLighting>
      <feSpecularLighting
         specularExponent="20"
         specularConstant="0.69999999"
         surfaceScale="10"
         lighting-color="#ffffff"
         result="result1"
         in="result0"
         id="feSpecularLighting886">
        <feDistantLight
           elevation="45"
           azimuth="225"
           id="feDistantLight884" />
      </feSpecularLighting>
      <feBlend
         mode="screen"
         result="result5"
         in2="SourceGraphic"
         in="result13"
         id="feBlend888" />
      <feComposite
         in="result1"
         k3="1"
         k2="1"
         operator="arithmetic"
         in2="result5"
         result="result9"
         id="feComposite890"
         k1="0"
         k4="0" />
      <feComposite
         in2="SourceGraphic"
         operator="in"
         id="feComposite892"
         result="fbSourceGraphic" />
      <feColorMatrix
         result="fbSourceGraphicAlpha"
         in="fbSourceGraphic"
         values="0 0 0 -1 0 0 0 0 -1 0 0 0 0 -1 0 0 0 0 1 0"
         id="feColorMatrix968" />
      <feColorMatrix
         id="feColorMatrix970"
         values="0.21 0.72 0.072 -0.3 0 0.21 0.72 0.072 -0.3 0 0.21 0.72 0.072 -0.3 0 0 0 0 1 0 "
         in="fbSourceGraphic" />
    </filter>
    <filter
       inkscape:label="Greyscale"
       inkscape:menu="Bumps"
       inkscape:menu-tooltip="Bumps effect with a bevel, color flood and complex lighting"
       style="color-interpolation-filters:sRGB"
       id="filter930">
      <feGaussianBlur
         stdDeviation="5"
         result="result8"
         id="feGaussianBlur896" />
      <feComposite
         result="result6"
         in="SourceGraphic"
         operator="in"
         in2="result8"
         id="feComposite898" />
      <feComposite
         operator="in"
         result="result11"
         in2="result6"
         id="feComposite900" />
      <feFlood
         result="result10"
         flood-opacity="1"
         flood-color="rgb(255,255,255)"
         id="feFlood902" />
      <feBlend
         mode="multiply"
         in="result10"
         in2="result11"
         result="result12"
         id="feBlend904" />
      <feComposite
         result="fbSourceGraphic"
         operator="in"
         in2="SourceGraphic"
         in="result12"
         id="feComposite906" />
      <feFlood
         result="result6"
         flood-color="rgb(75,101,154)"
         id="feFlood908" />
      <feComposite
         k3="0.3"
         k2="0.3"
         k1="0.5"
         operator="arithmetic"
         result="result2"
         in="fbSourceGraphic"
         in2="result6"
         id="feComposite910"
         k4="0" />
      <feColorMatrix
         result="fbSourceGraphicAlpha"
         in="result2"
         values="1 0 0 -1 0 1 0 1 -1 0 1 0 0 -1 0 -0.8 -1 0 3.9 -2.7 "
         type="matrix"
         id="feColorMatrix912" />
      <feGaussianBlur
         result="result0"
         in="fbSourceGraphicAlpha"
         stdDeviation="0.5"
         id="feGaussianBlur914" />
      <feDiffuseLighting
         lighting-color="#ffffff"
         diffuseConstant="0.69999999"
         surfaceScale="50"
         result="result13"
         in="result0"
         id="feDiffuseLighting918">
        <feDistantLight
           elevation="20"
           azimuth="225"
           id="feDistantLight916" />
      </feDiffuseLighting>
      <feSpecularLighting
         specularExponent="20"
         specularConstant="0.69999999"
         surfaceScale="10"
         lighting-color="#ffffff"
         result="result1"
         in="result0"
         id="feSpecularLighting922">
        <feDistantLight
           elevation="45"
           azimuth="225"
           id="feDistantLight920" />
      </feSpecularLighting>
      <feBlend
         mode="screen"
         result="result5"
         in2="SourceGraphic"
         in="result13"
         id="feBlend924" />
      <feComposite
         in="result1"
         k3="1"
         k2="1"
         operator="arithmetic"
         in2="result5"
         result="result9"
         id="feComposite926"
         k1="0"
         k4="0" />
      <feComposite
         in2="SourceGraphic"
         operator="in"
         id="feComposite928"
         result="fbSourceGraphic" />
      <feColorMatrix
         result="fbSourceGraphicAlpha"
         in="fbSourceGraphic"
         values="0 0 0 -1 0 0 0 0 -1 0 0 0 0 -1 0 0 0 0 1 0"
         id="feColorMatrix964" />
      <feColorMatrix
         id="feColorMatrix966"
         values="0.21 0.72 0.072 -0.3 0 0.21 0.72 0.072 -0.3 0 0.21 0.72 0.072 -0.3 0 0 0 0 1 0 "
         in="fbSourceGraphic" />
    </filter>
  </defs>
  <sodipodi:namedview
     pagecolor="#ffffff"
     bordercolor="#666666"
     borderopacity="1"
     objecttolerance="10"
     gridtolerance="10"
     guidetolerance="10"
     inkscape:pageopacity="0"
     inkscape:pageshadow="2"
     inkscape:window-width="1366"
     inkscape:window-height="705"
     id="namedview1719"
     showgrid="false"
     inkscape:zoom="1.2746914"
     inkscape:cx="324"
     inkscape:cy="180"
     inkscape:window-x="-8"
     inkscape:window-y="-8"
     inkscape:window-maximized="1"
     inkscape:current-layer="layer1"
     units="px"
     inkscape:snap-global="true"
     showguides="true"
     inkscape:guide-bbox="true"
     inkscape:lockguides="false"
     inkscape:document-rotation="0" />
  <!--
Created by Hari Seldon and modified by orangain, licensed under Creative Commons Attribution-Share Alike 3.0 Unported.
See: https://creativecommons.org/licenses/by-sa/3.0/deed.en

Original file is available at: https://commons.wikimedia.org/wiki/File:Shogi_gyokusho(svg).svg
-->
  <filter
     id="drop-shadow">
    <feGaussianBlur
       in="SourceAlpha"
       result="blur"
       stdDeviation="2"
       id="feGaussianBlur1692" />
    <feOffset
       result="offsetBlur"
       dx="2"
       dy="2"
       id="feOffset1694" />
    <feBlend
       in="SourceGraphic"
       in2="offsetBlur"
       mode="normal"
       id="feBlend1696" />
  </filter>
  <g
     inkscape:groupmode="layer"
     id="layer1"
     inkscape:label="new"
     style="opacity:0.98999999">
    <g
       transform="matrix(0.85275591,0,0,0.85275591,276.61875,55.124556)"
       style="stroke:#000000;stroke-width:1.4072;stroke-miterlimit:4;stroke-dasharray:none;stroke-opacity:1;filter:url(#filter1006)"
       id="g924">
      <g
         style="stroke:#000000;stroke-width:1.4072;stroke-miterlimit:4;stroke-dasharray:none;stroke-opacity:1"
         id="g873">
        <g
           style="stroke:#000000;stroke-width:1.4072;stroke-miterlimit:4;stroke-dasharray:none;stroke-opacity:1"
           id="g12507">
          <g
             style="stroke:#000000;stroke-width:1.4072;stroke-miterlimit:4;stroke-dasharray:none;stroke-opacity:1"
             id="g12482"
             transform="translate(-0.932232,-3.34937)">
            <path
               sodipodi:nodetypes="ccccc"
               inkscape:connector-curvature="0"
               id="path8065"
               d="m 32.682232,189.22437 h 47.625 v -10.58333 h -47.625 z"
               style="fill:none;stroke:#000000;stroke-width:1.4072;stroke-linecap:butt;stroke-linejoin:miter;stroke-miterlimit:4;stroke-dasharray:none;stroke-opacity:1" />
            <path
               sodipodi:nodetypes="ccccc"
               inkscape:connector-curvature="0"
               id="path8069"
               d="m 39.296815,169.38062 v -7.9375 h 34.395834 v 7.9375 z"
               style="fill:none;stroke:#000000;stroke-width:1.4072;stroke-linecap:butt;stroke-linejoin:miter;stroke-miterlimit:4;stroke-dasharray:none;stroke-opacity:1" />
            <path
               sodipodi:nodetypes="ccccc"
               inkscape:connector-curvature="0"
               id="path8110"
               d="m 48.557232,137.63062 -0.04147,-6.61458 h 15.916474 l -4e-6,6.61458 z"
               style="fill:none;stroke:#000000;stroke-width:1.4072;stroke-linecap:butt;stroke-linejoin:miter;stroke-miterlimit:4;stroke-dasharray:none;stroke-opacity:1" />
            <path
               sodipodi:nodetypes="ccccc"
               inkscape:connector-curvature="0"
               id="path8112"
               d="m 44.588482,153.50562 v -7.9375 h 23.79192 l 0.02058,7.9375 z"
               style="fill:none;stroke:#000000;stroke-width:1.4072;stroke-linecap:butt;stroke-linejoin:miter;stroke-miterlimit:4;stroke-dasharray:none;stroke-opacity:1" />
            <path
               sodipodi:nodetypes="cccccc"
               inkscape:connector-curvature="0"
               id="path8114"
               d="m 72.369732,131.01604 c -10.583333,-3.96875 -11.90625,-6.61459 -15.875,-11.90625 l -0.5625,-8.76042 -0.760417,8.76042 c -3.96875,5.29166 -3.96875,7.9375 -14.552083,11.90625 z"
               style="fill:#000000;fill-opacity:1;stroke:#000000;stroke-width:1.4072;stroke-linecap:butt;stroke-linejoin:miter;stroke-miterlimit:4;stroke-dasharray:none;stroke-opacity:1" />
            <path
               inkscape:connector-curvature="0"
               id="path8177"
               d="m 85.598899,178.64104 c -6.614584,0 -10.583334,-9.26042 -10.583334,-9.26042 H 37.973899 c 0,0 -3.96875,9.26042 -10.583334,9.26042 z"
               style="fill:#000000;fill-opacity:1;stroke:#000000;stroke-width:1.4072;stroke-linecap:butt;stroke-linejoin:miter;stroke-miterlimit:4;stroke-dasharray:none;stroke-opacity:1"
               sodipodi:nodetypes="zcczz" />
          </g>
          <path
             inkscape:connector-curvature="0"
             id="path8177-6"
             d="m 31.75,158.09375 c -3.96875,0 51.59375,0 47.625,0 -3.96875,0 -9.260417,-7.9375 -9.260417,-7.9375 H 41.010417 c 0,0 -5.291667,7.9375 -9.260417,7.9375 z"
             style="fill:#000000;fill-opacity:1;stroke:#000000;stroke-width:1.4072;stroke-linecap:butt;stroke-linejoin:miter;stroke-miterlimit:4;stroke-dasharray:none;stroke-opacity:1"
             sodipodi:nodetypes="zzccz" />
        </g>
        <path
           inkscape:connector-curvature="0"
           id="path8177-6-5"
           d="m 37.041667,142.21875 c -2.645834,0 39.6875,0 37.041666,0 -2.645834,0 -7.9375,-7.9375 -7.9375,-7.9375 H 44.979167 c 0,0 -5.291666,7.9375 -7.9375,7.9375 z"
           style="fill:#000000;fill-opacity:1;stroke:#000000;stroke-width:1.4072;stroke-linecap:butt;stroke-linejoin:miter;stroke-miterlimit:4;stroke-dasharray:none;stroke-opacity:1"
           sodipodi:nodetypes="zzccz" />
      </g>
    </g>
    <g
       transform="matrix(0.91916686,0,0,1.0695247,-161.46087,-19.866302)"
       id="g7593">
      <g
         id="g7528"
         style="stroke:#000000;stroke-width:1.4881;stroke-miterlimit:4;stroke-dasharray:none;stroke-opacity:1"
         transform="matrix(0.672,0,0,0.672,14.206318,-42.648538)">
        <g
           style="stroke:#000000;stroke-width:13.2275;stroke-miterlimit:4;stroke-dasharray:none;stroke-opacity:1"
           transform="matrix(0.1125,0,0,0.1125,214.5168,75.186)"
           id="g833">
          <path
             style="fill:#000000;fill-opacity:1;stroke:#000000;stroke-width:12.5661;stroke-linecap:butt;stroke-linejoin:miter;stroke-miterlimit:4;stroke-dasharray:none;stroke-opacity:1;filter:url(#filter894)"
             d="m 327.56974,544.94404 c -8.56028,-24.94008 -15.84844,-39.20476 -22.04803,-63.53431 -6.19958,-24.32954 -12.00838,-50.0095 -17.36394,-80.37028 -5.35556,-30.36079 -0.74003,-49.46475 7.00738,-74.15485 7.74742,-24.69009 25.38887,-49.15523 39.41196,-64.30373 14.02309,-15.1485 31.4383,-25.21018 50.04002,-33.70948 18.60171,-8.49929 36.59704,-11.69963 57.8243,-11.92542 21.22726,-0.2258 36.9843,1.44701 53.93217,10.37158 16.94786,8.92456 40.84391,39.50365 49.78353,53.93214 0,0 7.54192,43.90586 11.10071,65.85946 3.5588,21.95361 8.52889,43.84144 10.25246,65.85947 1.72356,22.01802 0.22078,43.90586 0.11911,65.85947 -0.10167,21.95361 -0.72914,65.85946 -0.72914,65.85946 -5.81521,17.81368 -36.45794,44.62058 -43.56059,66.37806 -7.10266,21.75748 -11.50402,31.5223 -10.37907,48.47114 1.12494,16.94883 22.15587,42.6903 14.52769,53.17024 -7.62818,10.47995 -19.91395,13.96687 -45.6349,8.29726 -25.72096,-5.66962 -43.68021,-13.64613 -64.30373,-35.26334 -20.62351,-21.61721 -54.45914,-67.86694 -63.26658,-86.08402 -8.80743,-18.2171 -18.15307,-29.77276 -26.71335,-54.71285 z"
             id="path817"
             inkscape:connector-curvature="0"
             sodipodi:nodetypes="zzzzzzzzczzzczzzzzzz" />
          <path
             style="fill:#000000;fill-opacity:1;stroke:#000000;stroke-width:13.2275;stroke-linecap:butt;stroke-linejoin:miter;stroke-miterlimit:4;stroke-dasharray:none;stroke-opacity:1;filter:url(#filter930)"
             d="m 552.42254,271.29842 c 0,0 47.82656,-14.94643 67.68814,-17.46791 19.86158,-2.52148 34.0599,-2.26333 50.22023,0 16.16033,2.26333 30.33248,4.50955 45.85325,13.10093 15.52077,8.59138 30.26039,21.45413 43.66977,39.30279 13.40938,17.84866 24.67266,43.85522 32.75232,67.68814 8.07966,23.83292 12.81019,55.20557 15.28442,74.2386 2.47423,19.03303 -3.60373,16.19782 2.18349,39.30279 5.78722,23.10497 35.09529,65.01158 43.66976,93.89 8.57447,28.87842 13.50309,53.56404 10.91745,76.42209 -2.58564,22.85805 -10.69074,37.45486 -21.83489,56.7707 -11.14415,19.31584 -24.69557,36.82621 -35.39223,49.44797 -10.69666,12.62176 -19.34824,19.07875 -27.92893,26.97412 -8.58069,7.89537 -19.71904,18.87761 -34.93581,26.20186 -15.21677,7.32425 -61.98526,37.43233 -76.42209,24.01837 -14.43683,-13.41396 8.81976,-24.76227 8.73395,-37.11931 -0.0858,-12.35704 -14.92028,-25.16017 -8.73395,-34.93581 6.18633,-9.77564 21.56261,0.20174 32.75232,-6.55046 11.18971,-6.7522 27.8524,-13.71107 36.57936,-25.37614 8.72696,-11.66507 19.60033,-29.26343 15.82436,-44.49549 -3.77597,-15.23206 -29.15364,-9.89079 -45.85325,-24.01837 -16.69961,-14.12758 -32.24007,-45.42522 -48.03674,-52.39582 -15.79667,-6.9706 -14.35691,-6.63968 -24.01838,-8.74185 -9.66147,-2.10217 -19.77164,-7.85463 -30.56883,-17.46791 -10.79719,-9.61328 -30.56884,-41.48628 -30.56884,-41.48628"
             id="path819"
             inkscape:connector-curvature="0"
             sodipodi:nodetypes="czzzzzzzzzzzzzzzzzzzzzzzc" />
          <path
             style="fill:#ffffff;fill-opacity:1;stroke:#000000;stroke-width:9.89077;stroke-linecap:butt;stroke-linejoin:miter;stroke-miterlimit:4;stroke-dasharray:none;stroke-opacity:1"
             d="m 957.67375,609.06813 c 0,0 -21.6434,14.97676 -36.04212,20.8012 -14.39872,5.82441 -31.84098,10.89974 -50.0585,12.48069 -18.21751,1.58098 -33.81424,1.92218 -58.06786,-4.16023 -24.25363,-6.08238 -64.56184,-39.08799 -84.09828,-37.44212 -19.53645,1.64586 -22.70408,14.56082 -22.70408,14.56082 -2.79627,8.54699 -4.08861,17.26898 0.67834,27.04153 4.76696,9.77256 14.09385,15.46826 30.03511,22.88133 15.94127,7.41304 43.36195,13.81713 66.07721,14.56082 22.71527,0.74369 49.34135,-4.66959 68.07956,-10.4006 18.73821,-5.73097 29.4102,-10.81356 44.05149,-20.80118 14.64129,-9.98762 42.04913,-39.52226 42.04913,-39.52226 z"
             id="path825"
             inkscape:connector-curvature="0"
             sodipodi:nodetypes="czzzzszzzzzc" />
          <path
             style="fill:#ffffff;fill-opacity:1;stroke:#ffffff;stroke-width:13.2275;stroke-linecap:butt;stroke-linejoin:miter;stroke-miterlimit:4;stroke-dasharray:none;stroke-opacity:1"
             d="m 742.69004,471.95764 c 0,0 -21.86149,4.5009 -33.50017,1.97061 -11.63868,-2.53029 -25.94347,-8.64246 -33.50017,-17.73538 -7.5567,-9.09293 -9.85299,-31.52958 -9.85299,-31.52958 0,0 29.52294,-0.0929 43.35316,7.8824 13.83021,7.97528 33.50017,39.41195 33.50017,39.41195 z"
             id="path827"
             inkscape:connector-curvature="0"
             sodipodi:nodetypes="czzczc" />
        </g>
        <path
           sodipodi:nodetypes="czcc"
           inkscape:connector-curvature="0"
           id="path823"
           d="m 288.44721,136.39908 c 0,0 0.25438,3.23517 0.84918,4.69053 0.5948,1.45536 3.24987,5.45591 3.24987,5.45591 -0.54918,-4.25229 2.46193,-5.67887 5.847,-4.41087"
           style="fill:none;stroke:#ffffff;stroke-width:1.04167;stroke-linecap:butt;stroke-linejoin:miter;stroke-miterlimit:4;stroke-dasharray:none;stroke-opacity:1" />
      </g>
      <path
         style="fill:none;stroke:#ffffff;stroke-width:0.7;stroke-linecap:butt;stroke-linejoin:miter;stroke-miterlimit:4;stroke-dasharray:none;stroke-opacity:1"
         d="m 201.77547,49.350722 c 0,0 0.29962,-3.490827 0.34538,-5.241027 0.0457,-1.746571 0.0496,-3.498013 -0.0709,-5.241026 -0.13967,-2.021477 -0.37015,-4.042373 -0.75451,-6.03188 -0.29096,-1.506017 -1.17074,-4.450174 -1.17074,-4.450174"
         id="path7532"
         inkscape:connector-curvature="0"
         sodipodi:nodetypes="caaac" />
      <path
         style="fill:none;stroke:#ffffff;stroke-width:0.7;stroke-linecap:butt;stroke-linejoin:miter;stroke-miterlimit:4;stroke-dasharray:none;stroke-opacity:1"
         d="m 214.37491,69.766639 c 0,0 -0.12244,-0.659271 -0.40033,-1.33202 -0.27788,-0.672751 -1.23579,-1.277238 -1.23579,-1.277238"
         id="path7534"
         inkscape:connector-curvature="0"
         sodipodi:nodetypes="czc" />
      <path
         style="fill:none;stroke:#ffffff;stroke-width:0.7;stroke-linecap:butt;stroke-linejoin:miter;stroke-miterlimit:4;stroke-dasharray:none;stroke-opacity:1"
         d="m 220.93498,63.673631 c 0,0 -0.12793,-0.309141 -0.92128,-1.088081 -0.79336,-0.77894 -1.92458,-0.813402 -1.92458,-0.813402"
         id="path7538"
         inkscape:connector-curvature="0"
         sodipodi:nodetypes="czc" />
      <path
         style="fill:none;stroke:#ffffff;stroke-width:0.7;stroke-linecap:butt;stroke-linejoin:miter;stroke-miterlimit:4;stroke-dasharray:none;stroke-opacity:1"
         d="m 218.29471,66.771042 c 0,0 -0.39289,-0.677242 -0.86388,-1.134201 -0.47098,-0.456959 -1.40644,-0.94153 -1.40644,-0.94153"
         id="path7538-8"
         inkscape:connector-curvature="0"
         sodipodi:nodetypes="czc" />
    </g>
    <g
       transform="matrix(0.08763749,0,0,0.08763749,583.75985,-5.2300929)"
       id="g2518">
      <path
         inkscape:connector-curvature="0"
         id="path1928"
         d="m 237.8,702.4 c -42,0 -77.3,-14.9 -102.2,-43 -23,-25.9 -35.6,-62.3 -35.6,-102.5 0,-59.2 41.5,-73.3 77.5,-79.1 l 16.4,-2.6 -5,15.8 c -6.5,20.5 -10.2,42.9 -10.2,61.2 0,54 24.4,87.6 63.6,87.6 29.2,0 56.6,-23.8 70.7,-60.2 -11.8,-2.4 -21.5,-5.2 -29.1,-8.4 -13.4,-5.6 -20.1,-13 -20.5,-21.8 l -7,-55.7 v -0.6 c 0,-9.1 5.6,-15.6 12.9,-20.5 -1.6,-4.3 -3.3,-8.9 -5.1,-13.5 -16.6,-44.9 -37.3,-100.9 -37.3,-143.7 0,-50.4 22.1,-95.4 62.4,-126.9 10.9,-15.3 27.2,-32 48.5,-49.7 17.8,-14.8 38,-29.3 56.9,-40.9 l 5.4,-3.2 5.4,3.2 c 36.1,22.1 82.4,58.6 105.4,90.7 40.3,31.5 62.5,76.4 62.5,126.5 0,43.1 -20.7,99.5 -37.5,144.7 -1.6,4.4 -2.9,8.6 -4.4,12.7 7.2,5 13.3,11.4 13.3,20.5 v 0.6 l -7.6,55.6 c -0.6,13.7 -17.1,23.7 -50,30.3 14.1,36.4 41.5,60.2 70.6,60.2 39.2,0 63.5,-33.6 63.5,-87.6 0,-18.4 -3.7,-40.7 -10.2,-61.2 l -5,-15.8 16.3,2.6 c 25.3,4 42.8,10.9 55.2,21.7 15,13.2 22.4,32 22.4,57.3 0,40.2 -12.6,76.6 -35.6,102.5 -24.8,28.1 -60.3,43 -102.2,43 -65.6,0 -118.8,-45.1 -137.8,-115.7 -8,0.3 -16.2,0.5 -24.4,0.5 -8.2,0 -16.4,-0.2 -24.4,-0.5 -18.9,70.7 -72.3,115.9 -137.8,115.9 z" />
      <path
         inkscape:connector-curvature="0"
         id="path1930"
         d="m 400,106.5 c 33.5,20.5 80.6,56.7 103.2,89.2 35.9,27.5 59.8,68.3 59.8,119.3 0,48.3 -28.5,117.6 -44.4,161.9 9.7,5.4 15.2,10.2 15.2,16.2 l -7.2,55.4 c 0,9.5 -21,17.9 -53.1,23.1 13.2,44.7 45.9,78.4 84.2,78.4 45.7,0 73.9,-38.9 73.9,-97.8 0,-20 -4,-43.3 -10.7,-64.3 41.5,6.6 68.9,21.9 68.9,68.9 0,75 -45.6,135.2 -127.5,135.2 -62,0 -113.6,-43.6 -129.9,-116.1 -10.4,0.6 -21.2,1 -32.4,1 -11.2,0 -22,-0.3 -32.4,-1 -16.3,72.5 -68,116.1 -130,116.1 -82,0 -127.5,-60.3 -127.5,-135.2 0,-47 27.4,-62.4 68.9,-68.9 -6.6,21 -10.7,44.4 -10.7,64.3 0,59 28.1,97.8 73.9,97.8 38.3,0 71.1,-33.7 84.2,-78.4 -32.2,-5.2 -53.1,-13.5 -53.1,-23 L 266,493 c 0,-5.9 5.5,-10.8 15.2,-16.2 -15.8,-44.3 -44.4,-113.3 -44.4,-161.6 0,-51 23.9,-92.2 59.7,-119.7 22.9,-32.4 70,-68.4 103.5,-89 m 0,-24 -10.7,6.5 c -79.06332,53.73027 -171.29343,135.21753 -172.8,226.1 0,44.7 21.1,101.6 37.9,147.3 0.9,2.2 1.6,4.3 2.4,6.5 -6,5.7 -11.2,13.5 -11.2,24.1 v 1.3 l 0.2,1.3 7.1,54.8 c 0.3,5.7 2.7,13.4 10.6,20.4 4.2,3.8 9.5,6.9 16.4,9.8 5.3,2.3 11.6,4.3 18.6,6.2 -5.2,10.2 -11.6,19 -18.9,26 -8,7.7 -21,16.7 -37.4,16.7 -15.8,0 -28.4,-6.3 -37.6,-18.6 -10.3,-13.8 -15.7,-34.1 -15.7,-58.8 0,-17.4 3.6,-38.6 9.7,-58.1 l 9.9,-31.6 -32.7,5.2 c -37,5.8 -86.2,21.5 -86.2,89.2 0,21.1 3.2,41 9.5,59.4 6.5,19 16.2,35.7 28.7,49.9 26.9,30.3 64.9,46.4 109.8,46.4 67.9,0 123.4,-44.7 145.5,-115.5 5.5,0.1 11.1,0.2 16.8,0.2 5.6,0 11.2,-0.1 16.8,-0.2 21.9,70.7 77.5,115.5 145.5,115.5 45,0 82.9,-16.1 109.8,-46.4 12.5,-14.1 22.1,-30.9 28.7,-49.9 6.3,-18.4 9.5,-38.3 9.5,-59.4 0,-67.7 -49.1,-83.4 -86.2,-89.2 l -32.7,-5.2 9.9,31.6 c 6.2,19.5 9.7,40.7 9.7,58.1 0,24.6 -5.4,44.9 -15.7,58.8 -9.2,12.3 -21.8,18.6 -37.6,18.6 -16.4,0 -29.4,-9.1 -37.4,-16.7 -7.2,-7 -13.7,-15.9 -18.9,-26 7.1,-1.8 13.3,-3.9 18.7,-6.2 6.8,-2.9 12.2,-6.2 16.4,-9.9 7.9,-7.1 10.2,-14.7 10.6,-20.4 l 7.1,-54.5 0.1,-1.3 v -1.4 c 0,-10.6 -5.2,-18.4 -11.1,-24 0.6,-1.9 1.4,-3.9 2.2,-5.8 17,-46 38,-103.4 38,-148.3 C 574.08358,230.82966 524.22552,177.24343 469,131 450.7,115.8 430.1,101 410.9,89.1 Z"
         sodipodi:nodetypes="ccsccccsscsscscsscssccccscccccccscccccccscscccsccscscsccscccscscccccccscccccc" />
      <g
         style="fill:none;stroke:#f2f2f2;stroke-miterlimit:10"
         id="g1946"
         stroke-miterlimit="10">
        <g
           style="stroke-width:15.12"
           id="g1942">
          <g
             style="stroke-linecap:round"
             id="g1938">
            <path
               inkscape:connector-curvature="0"
               id="path1932"
               d="m 526.7,548.5 7.2,-55.7 c 0,-19.7 -58.9,-35.2 -133.9,-35.2 -75.1,0 -133.9,15.7 -133.9,35.2 l 7.2,55.7"
               style="stroke:#ffffff;stroke-opacity:1" />
            <path
               inkscape:connector-curvature="0"
               id="path1934"
               d="m 273.4,548.5 c 0,-15.7 56.7,-28.4 126.7,-28.4 70,0 126.7,12.7 126.7,28.4"
               style="stroke:#ffffff;stroke-opacity:1" />
            <path
               inkscape:connector-curvature="0"
               id="path1936"
               d="m 169.8,491.2 c -35.2,6.3 -58.5,21.1 -58.5,66.2 0,72 38.8,126.7 108.3,126.7 63.3,0 113.9,-59.6 114.8,-156.2 m 295.7,-36.7 c 35.2,6.3 58.5,21.1 58.5,66.2 0,72 -38.8,126.7 -108.3,126.7 -63.3,0 -113.9,-59.6 -114.8,-156.2"
               style="stroke:#ffffff;stroke-opacity:1" />
          </g>
          <path
             inkscape:connector-curvature="0"
             id="path1940"
             d="M 518.7,476.2 C 534.5,431.5 563.1,362.9 563.1,314.6 551.37887,219.28206 477.38799,153.58566 400.2,105.4 327.45457,155.61331 238.74397,232.63794 237.3,314.6 c 0,48.3 28.6,116.9 44.4,161.6"
             sodipodi:nodetypes="ccccc"
             style="fill:none;stroke:#ffffff;stroke-opacity:1" />
        </g>
        <path
           style="stroke:#ffffff;stroke-width:17.28;stroke-opacity:1"
           inkscape:connector-curvature="0"
           id="path1944"
           d="m 398.9,211.2 v 184.7 m -69.1,-94 h 140.4" />
      </g>
    </g>
  </g>
</svg>
